REM DIRINDEX 1\4,1\2\5,1\2\6,1\2\7,1\3\8,1\3\9,1\3\10,1\3\11
REM DIRNAME folder01,folder02,folder03,folder04,folder05,folder06,folder07,folder08,folder09,folder10,folder11
TITLE ""
FILE "t_j_3.mp3" MP3
  TRACK 01 AUDIO
    TITLE "8:cjc108_2413"
    INDEX 01 00:00:00
  TRACK 02 AUDIO
    TITLE "0:"
    INDEX 01 00:01:71
  TRACK 03 AUDIO
    TITLE "9:cjc108_2414"
    INDEX 01 00:03:12
  TRACK 04 AUDIO
    TITLE "0:"
    INDEX 01 00:04:05
  TRACK 05 AUDIO
    TITLE "10:cjc108_2415"
    INDEX 01 00:04:27
  TRACK 06 AUDIO
    TITLE "0:"
    INDEX 01 00:06:55
  TRACK 07 AUDIO
    TITLE "11:cjc108_2416"
    INDEX 01 00:07:33
  TRACK 08 AUDIO
    TITLE "0:"
    INDEX 01 00:12:09
  TRACK 09 AUDIO
    TITLE "9:cjc108_2417"
    INDEX 01 00:13:67
  TRACK 10 AUDIO
    TITLE "0:"
    INDEX 01 00:15:15
  TRACK 11 AUDIO
    TITLE "10:cjc108_2418"
    INDEX 01 00:15:30
  TRACK 12 AUDIO
    TITLE "0:"
    INDEX 01 00:16:59
  TRACK 13 AUDIO
    TITLE "9:cjc108_2419"
    INDEX 01 00:17:41
  TRACK 14 AUDIO
    TITLE "0:"
    INDEX 01 00:18:64
  TRACK 15 AUDIO
    TITLE "10:cjc108_2420"
    INDEX 01 00:18:72
  TRACK 16 AUDIO
    TITLE "0:"
    INDEX 01 00:22:25
  TRACK 17 AUDIO
    TITLE "9:cjc108_2421"
    INDEX 01 00:23:06
  TRACK 18 AUDIO
    TITLE "0:"
    INDEX 01 00:24:20
  TRACK 19 AUDIO
    TITLE "10:cjc108_2422"
    INDEX 01 00:24:29
  TRACK 20 AUDIO
    TITLE "0:"
    INDEX 01 00:25:72
  TRACK 21 AUDIO
    TITLE "9:cjc108_2423"
    INDEX 01 00:26:52
  TRACK 22 AUDIO
    TITLE "0:"
    INDEX 01 00:27:73
  TRACK 23 AUDIO
    TITLE "10:cjc108_2424"
    INDEX 01 00:28:00
  TRACK 24 AUDIO
    TITLE "0:"
    INDEX 01 00:29:74
  TRACK 25 AUDIO
    TITLE "9:cjc108_2425"
    INDEX 01 00:30:57
  TRACK 26 AUDIO
    TITLE "0:"
    INDEX 01 00:32:09
  TRACK 27 AUDIO
    TITLE "10:cjc108_2426"
    INDEX 01 00:32:27
  TRACK 28 AUDIO
    TITLE "0:"
    INDEX 01 00:35:04
  TRACK 29 AUDIO
    TITLE "11:cjc108_2427"
    INDEX 01 00:35:63
  TRACK 30 AUDIO
    TITLE "0:"
    INDEX 01 00:41:34
  TRACK 31 AUDIO
    TITLE "9:cjc108_2428"
    INDEX 01 00:43:17
  TRACK 32 AUDIO
    TITLE "0:"
    INDEX 01 00:44:32
  TRACK 33 AUDIO
    TITLE "10:cjc108_2429"
    INDEX 01 00:44:52
  TRACK 34 AUDIO
    TITLE "0:"
    INDEX 01 00:46:23
  TRACK 35 AUDIO
    TITLE "11:cjc108_2430"
    INDEX 01 00:47:03
  TRACK 36 AUDIO
    TITLE "0:"
    INDEX 01 00:51:26
  TRACK 37 AUDIO
    TITLE "9:cjc108_2431"
    INDEX 01 00:53:15
  TRACK 38 AUDIO
    TITLE "0:"
    INDEX 01 00:54:25
  TRACK 39 AUDIO
    TITLE "10:cjc108_2432"
    INDEX 01 00:54:40
  TRACK 40 AUDIO
    TITLE "0:"
    INDEX 01 00:57:27
  TRACK 41 AUDIO
    TITLE "9:cjc108_2433"
    INDEX 01 00:58:11
  TRACK 42 AUDIO
    TITLE "0:"
    INDEX 01 00:59:18
  TRACK 43 AUDIO
    TITLE "10:cjc108_2434"
    INDEX 01 00:59:34
  TRACK 44 AUDIO
    TITLE "0:"
    INDEX 01 01:01:23
  TRACK 45 AUDIO
    TITLE "9:cjc108_2435"
    INDEX 01 01:02:01
  TRACK 46 AUDIO
    TITLE "0:"
    INDEX 01 01:03:37
  TRACK 47 AUDIO
    TITLE "10:cjc108_2436"
    INDEX 01 01:03:41
  TRACK 48 AUDIO
    TITLE "0:"
    INDEX 01 01:05:52
  TRACK 49 AUDIO
    TITLE "11:cjc108_2437"
    INDEX 01 01:06:28
  TRACK 50 AUDIO
    TITLE "0:"
    INDEX 01 01:12:44
  TRACK 51 AUDIO
    TITLE "9:cjc108_2438"
    INDEX 01 01:14:23
  TRACK 52 AUDIO
    TITLE "0:"
    INDEX 01 01:15:33
  TRACK 53 AUDIO
    TITLE "10:cjc108_2439"
    INDEX 01 01:15:50
  TRACK 54 AUDIO
    TITLE "0:"
    INDEX 01 01:18:70
  TRACK 55 AUDIO
    TITLE "9:cjc108_2440"
    INDEX 01 01:19:48
  TRACK 56 AUDIO
    TITLE "0:"
    INDEX 01 01:21:23
  TRACK 57 AUDIO
    TITLE "10:cjc108_2441"
    INDEX 01 01:21:25
  TRACK 58 AUDIO
    TITLE "0:"
    INDEX 01 01:23:03
  TRACK 59 AUDIO
    TITLE "9:cjc108_2442"
    INDEX 01 01:23:54
  TRACK 60 AUDIO
    TITLE "0:"
    INDEX 01 01:25:45
  TRACK 61 AUDIO
    TITLE "10:cjc108_2443"
    INDEX 01 01:25:53
  TRACK 62 AUDIO
    TITLE "0:"
    INDEX 01 01:26:58
  TRACK 63 AUDIO
    TITLE "11:cjc108_2444"
    INDEX 01 01:27:38
  TRACK 64 AUDIO
    TITLE "0:"
    INDEX 01 01:32:47
